<svg id="Слой_1" data-name="Слой 1" xmlns="http://www.w3.org/2000/svg" viewBox="0 0 92.94 90.99"><defs><style>.cls-1{fill:#f5b12c;}</style></defs><title>black_theme</title><path class="cls-1" d="M676.73,432.55a48,48,0,0,1-36.37,14,47.5,47.5,0,0,1-34.81-17.76A48.39,48.39,0,0,1,604,370.62,52.09,52.09,0,0,1,618.77,357a10,10,0,0,1,15.06,8.8c-1.11,24.64,18.3,41.82,43,38.41A10,10,0,0,1,687,418.38,55.24,55.24,0,0,1,676.73,432.55Zm-61.9-62.34a42.54,42.54,0,0,0-4.38,5.1,40.3,40.3,0,0,0,1.29,48.41,39.67,39.67,0,0,0,29,14.84,41.83,41.83,0,0,0,39-23.61,2,2,0,0,0-1-2.65,2,2,0,0,0-1-.17c-29.39,4.1-53.33-17.18-51.95-46.59a1.85,1.85,0,0,0-1-1.68,1.93,1.93,0,0,0-2,0A42.24,42.24,0,0,0,614.83,370.21Z" transform="translate(-595.04 -355.6)"/></svg>