<svg id="Слой_1" data-name="Слой 1" xmlns="http://www.w3.org/2000/svg" viewBox="0 0 58 55"><defs><style>.cls-1{fill:#ef313d;}</style></defs><title>quit</title><path class="cls-1" d="M982.74,540.5c8,0,14.49-6.16,14.49-13.75S990.74,513,982.74,513s-14.49,6.16-14.49,13.75S974.74,540.49,982.74,540.5Zm0-22.92a9.18,9.18,0,1,1-9.66,9.17A9.43,9.43,0,0,1,982.74,517.58Zm21.74,48.13a2.42,2.42,0,0,1-4.83,0c0-8.86-7.57-16-16.91-16s-16.91,7.18-16.91,16a2.42,2.42,0,0,1-4.83,0c0-11.39,9.73-20.63,21.74-20.63S1004.48,554.32,1004.48,565.71Zm13.78-20a2.22,2.22,0,0,1,.06,3.25,2.5,2.5,0,0,1-3.41,0l-.06,0-4.33-4.11-4.33,4.11a2.52,2.52,0,0,1-3.42-.06,2.22,2.22,0,0,1,0-3.19l4.33-4.1-4.33-4.11a2.21,2.21,0,0,1,.06-3.24,2.51,2.51,0,0,1,3.36,0l4.33,4.11,4.33-4.11a2.5,2.5,0,0,1,3.41.05,2.21,2.21,0,0,1,0,3.19l-4.33,4.11Z" transform="translate(-961 -513)"/></svg>