<svg id="Слой_1" data-name="Слой 1" xmlns="http://www.w3.org/2000/svg" viewBox="0 0 110 62"><defs><style>.cls-1{fill:#ef313d;}</style></defs><title>Search</title><path class="cls-1" d="M1044.51,554.68,1034,544.15a17.63,17.63,0,1,0-2.49,2.5L1042,557.17a1.76,1.76,0,0,0,2.5-2.49Zm-24.18-7.57A14.11,14.11,0,1,1,1034.44,533,14.1,14.1,0,0,1,1020.33,547.11Z" transform="translate(-935 -509)"/><path class="cls-1" d="M984.08,509H947.92A12.94,12.94,0,0,0,935,521.92v36.16A12.94,12.94,0,0,0,947.92,571h36.16A12.94,12.94,0,0,0,997,558.08V521.92A12.94,12.94,0,0,0,984.08,509Zm-31,56.83v-2.58a12.92,12.92,0,0,1,25.84,0v2.58Zm38.75-7.75a7.75,7.75,0,0,1-7.75,7.75v-2.58a18.08,18.08,0,0,0-36.16,0v2.58a7.75,7.75,0,0,1-7.75-7.75V521.92a7.75,7.75,0,0,1,7.75-7.75h36.16a7.75,7.75,0,0,1,7.75,7.75Z" transform="translate(-935 -509)"/><path class="cls-1" d="M966,519.33a10.34,10.34,0,1,0,10.33,10.34A10.33,10.33,0,0,0,966,519.33Zm0,15.5a5.17,5.17,0,1,1,5.17-5.16A5.17,5.17,0,0,1,966,534.83Z" transform="translate(-935 -509)"/></svg>