<svg id="Слой_1" data-name="Слой 1" xmlns="http://www.w3.org/2000/svg" viewBox="0 0 99.71 72.6"><defs><style>.cls-1{fill:#ef313d;}</style></defs><title>Search</title><path class="cls-1" d="M652.6,371.08c-10.9,0-19.74,8.54-19.74,19.08s8.84,19.07,19.74,19.07,19.75-8.54,19.75-19.07S663.51,371.08,652.6,371.08Zm0,33.46c-9.05,0-16.39-6.74-16.39-15.05s7.34-15.06,16.39-15.06,16.4,6.74,16.4,15.06S661.66,404.54,652.6,404.54Z" transform="translate(-588.57 -363.7)"/><rect class="cls-1" x="670.4" y="397.56" width="9.51" height="28.82" transform="translate(-691.82 188.39) rotate(-41.6)"/><circle class="cls-1" cx="21.09" cy="19.07" r="19.07"/><path class="cls-1" d="M630.4,436.3V416.61a14.8,14.8,0,0,0-14.76-14.76H603.33a14.8,14.8,0,0,0-14.76,14.76V436.3Z" transform="translate(-588.57 -363.7)"/></svg>