<svg id="Слой_1" data-name="Слой 1" xmlns="http://www.w3.org/2000/svg" viewBox="0 0 52.72 57.5"><defs><style>.cls-1{fill:#ef313d;}</style></defs><title>send</title><path class="cls-1" d="M613.28,419.18v-38.1a9.65,9.65,0,0,1,4.58-8.27,9.47,9.47,0,0,1,9.25-.44l33.59,19.09a9.75,9.75,0,0,1-.07,17.38l-33.4,19a9.52,9.52,0,0,1-9.37-.37A9.65,9.65,0,0,1,613.28,419.18Zm47.93-19.05a4.83,4.83,0,0,0-2.71-4.41l-.12-.07-33.52-19a4.62,4.62,0,0,0-4.48.27,4.92,4.92,0,0,0-2.31,4.2v38.11a4.91,4.91,0,0,0,2.31,4.2,4.66,4.66,0,0,0,4.6.21l33.4-19A4.91,4.91,0,0,0,661.21,400.13Z" transform="translate(-613.28 -371.37)"/></svg>