<svg id="Слой_1" data-name="Слой 1" xmlns="http://www.w3.org/2000/svg" viewBox="0 0 140.44 104"><defs><style>.cls-1{fill:#ce2939;}.cls-2{fill:#ef313d;}</style></defs><title>threegays</title><ellipse class="cls-1" cx="71.72" cy="27.32" rx="26.28" ry="27.32"/><path class="cls-1" d="M669.86,452V423.8c0-11.64-9.16-21.16-20.35-21.16h-17c-11.19,0-20.35,9.52-20.35,21.16V452Z" transform="translate(-569.56 -348)"/><ellipse class="cls-2" cx="29.07" cy="27.32" rx="26.28" ry="27.32"/><path class="cls-2" d="M627.21,452V423.8c0-11.64-9.15-21.16-20.34-21.16h-17c-11.19,0-20.35,9.52-20.35,21.16V452Z" transform="translate(-569.56 -348)"/><ellipse class="cls-2" cx="111.85" cy="27.32" rx="26.28" ry="27.32"/><path class="cls-2" d="M710,452V423.8c0-11.64-9.16-21.16-20.35-21.16H672.7c-11.2,0-20.35,9.52-20.35,21.16V452Z" transform="translate(-569.56 -348)"/></svg>