<svg id="Слой_1" data-name="Слой 1" xmlns="http://www.w3.org/2000/svg" viewBox="0 0 184 184"><defs><style>.cls-1{fill:#ef313d;}.cls-2{fill:#dd3142;}</style></defs><title>three_persons</title><path class="cls-1" d="M623,366.33A30.67,30.67,0,1,0,653.67,397,30.67,30.67,0,0,0,623,366.33Zm0,46A15.33,15.33,0,1,1,638.33,397,15.33,15.33,0,0,1,623,412.33Z" transform="translate(-531 -305)"/><path class="cls-1" d="M669,481.33a46,46,0,1,0-92,0,7.67,7.67,0,1,0,15.33,0,30.67,30.67,0,0,1,61.34,0,7.67,7.67,0,1,0,15.33,0Z" transform="translate(-531 -305)"/><path class="cls-2" d="M669,305a30.67,30.67,0,1,0,30.67,30.67A30.67,30.67,0,0,0,669,305Zm0,46a15.34,15.34,0,1,1,15.33-15.33A15.33,15.33,0,0,1,669,351Z" transform="translate(-531 -305)"/><path class="cls-2" d="M715,420a46.06,46.06,0,0,0-46-46,7.67,7.67,0,1,0,0,15.33A30.67,30.67,0,0,1,699.67,420,7.67,7.67,0,1,0,715,420Z" transform="translate(-531 -305)"/><path class="cls-2" d="M577,305a30.67,30.67,0,1,0,30.67,30.67A30.67,30.67,0,0,0,577,305Zm0,46a15.34,15.34,0,1,1,15.33-15.33A15.33,15.33,0,0,1,577,351Z" transform="translate(-531 -305)"/><path class="cls-2" d="M546.33,420A30.67,30.67,0,0,1,577,389.33,7.67,7.67,0,1,0,577,374a46.06,46.06,0,0,0-46,46,7.67,7.67,0,1,0,15.33,0Z" transform="translate(-531 -305)"/></svg>