<svg id="Слой_1" data-name="Слой 1" xmlns="http://www.w3.org/2000/svg" viewBox="0 0 169 169"><defs><style>.cls-1{fill:#ef313d;}.cls-2{fill:#dd3142;}</style></defs><title>twopersons</title><path class="cls-1" d="M608.81,344.17a31.69,31.69,0,1,0,31.69,31.68A31.68,31.68,0,0,0,608.81,344.17Zm0,49.29a17.61,17.61,0,1,1,17.61-17.61A17.6,17.6,0,0,1,608.81,393.46Z" transform="translate(-556 -316)"/><path class="cls-1" d="M661.63,478v-3.52a52.82,52.82,0,0,0-105.63,0V478a7,7,0,0,0,14.08,0v-3.52a38.73,38.73,0,0,1,77.46,0V478a7,7,0,0,0,14.09,0Z" transform="translate(-556 -316)"/><path class="cls-2" d="M725,442.75A49.3,49.3,0,0,0,642.84,406a7,7,0,1,0,9.3,10.58l.1-.08a35.21,35.21,0,0,1,58.68,26.24,7,7,0,1,0,14.08,0Z" transform="translate(-556 -316)"/><path class="cls-2" d="M679.23,316a31.69,31.69,0,1,0,31.69,31.69A31.69,31.69,0,0,0,679.23,316Zm0,49.29a17.61,17.61,0,1,1,17.6-17.6A17.6,17.6,0,0,1,679.23,365.29Z" transform="translate(-556 -316)"/></svg>